<svg width="23" height="28" viewBox="0 0 23 28" fill="none" xmlns="http://www.w3.org/2000/svg">
<path d="M20.7887 24.0003C19.6603 25.6537 18.464 27.267 16.6423 27.2937C14.8206 27.3337 14.236 26.2403 12.1696 26.2403C10.0896 26.2403 9.45065 27.267 7.72411 27.3337C5.9432 27.4003 4.59731 25.5737 3.45535 23.9603C1.13065 20.667 -0.650269 14.6003 1.74241 10.5203C2.92516 8.49366 5.04594 7.21366 7.34346 7.17366C9.08359 7.14699 10.7422 8.33366 11.8161 8.33366C12.8765 8.33366 14.8886 6.90699 16.9957 7.12033C17.8794 7.16033 20.3537 7.46699 21.9442 9.76033C21.8219 9.84033 18.9942 11.467 19.0214 14.8403C19.0622 18.867 22.624 20.2137 22.6648 20.227C22.624 20.3203 22.0938 22.147 20.7887 24.0003ZM13.0261 2.66699C14.0185 1.56033 15.6635 0.720326 17.0229 0.666992C17.1997 2.22699 16.5607 3.80033 15.6091 4.92033C14.671 6.05366 13.1212 6.93366 11.5986 6.81366C11.3947 5.28033 12.156 3.68033 13.0261 2.66699Z" fill="white"/>
</svg>
