<svg width="37" height="29" viewBox="0 0 37 29" fill="none" xmlns="http://www.w3.org/2000/svg">
<path d="M33.3235 0.5H3.67644C2.80279 0.5 1.96492 0.847058 1.34715 1.46482C0.729382 2.08259 0.382324 2.92046 0.382324 3.79412V25.2059C0.382324 26.0795 0.729382 26.9174 1.34715 27.5352C1.96492 28.1529 2.80279 28.5 3.67644 28.5H33.3235C34.1972 28.5 35.035 28.1529 35.6528 27.5352C36.2706 26.9174 36.6176 26.0795 36.6176 25.2059V3.79412C36.6176 2.92046 36.2706 2.08259 35.6528 1.46482C35.035 0.847058 34.1972 0.5 33.3235 0.5ZM3.67644 25.2059V3.79412H16.8529V25.2059H3.67644ZM33.3235 25.2059H20.147V3.79412H33.3235V25.2059ZM21.7941 9.55882H31.6764V12.0294H21.7941V9.55882ZM21.7941 13.6765H31.6764V16.1471H21.7941V13.6765ZM21.7941 17.7941H31.6764V20.2647H21.7941V17.7941Z" fill="white"/>
</svg>
