<svg width="29" height="28" viewBox="0 0 29 28" fill="none" xmlns="http://www.w3.org/2000/svg">
<path d="M14.3333 0C16.1898 0 17.9703 0.737498 19.2831 2.05025C20.5958 3.36301 21.3333 5.14348 21.3333 7C21.3333 8.85652 20.5958 10.637 19.2831 11.9497C17.9703 13.2625 16.1898 14 14.3333 14C12.4768 14 10.6963 13.2625 9.38357 11.9497C8.07081 10.637 7.33331 8.85652 7.33331 7C7.33331 5.14348 8.07081 3.36301 9.38357 2.05025C10.6963 0.737498 12.4768 0 14.3333 0M14.3333 3.5C13.4051 3.5 12.5148 3.86875 11.8584 4.52513C11.2021 5.1815 10.8333 6.07174 10.8333 7C10.8333 7.92826 11.2021 8.8185 11.8584 9.47487C12.5148 10.1313 13.4051 10.5 14.3333 10.5C15.2616 10.5 16.1518 10.1313 16.8082 9.47487C17.4646 8.8185 17.8333 7.92826 17.8333 7C17.8333 6.07174 17.4646 5.1815 16.8082 4.52513C16.1518 3.86875 15.2616 3.5 14.3333 3.5M14.3333 15.75C19.0058 15.75 28.3333 18.0775 28.3333 22.75V28H0.333313V22.75C0.333313 18.0775 9.66081 15.75 14.3333 15.75ZM14.3333 19.075C9.13581 19.075 3.65831 21.63 3.65831 22.75V24.675H25.0083V22.75C25.0083 21.63 19.5308 19.075 14.3333 19.075Z" fill="#3E3092"/>
</svg>
