<svg width="29" height="29" viewBox="0 0 29 29" fill="none" xmlns="http://www.w3.org/2000/svg">
<path fill-rule="evenodd" clip-rule="evenodd" d="M4.58337 3.16659H24.4167C24.7924 3.16659 25.1528 3.31584 25.4184 3.58152C25.6841 3.84719 25.8334 4.20753 25.8334 4.58325V24.4166C25.8334 24.7923 25.6841 25.1526 25.4184 25.4183C25.1528 25.684 24.7924 25.8333 24.4167 25.8333H4.58337C4.20765 25.8333 3.84732 25.684 3.58164 25.4183C3.31596 25.1526 3.16671 24.7923 3.16671 24.4166V4.58325C3.16671 4.20753 3.31596 3.84719 3.58164 3.58152C3.84732 3.31584 4.20765 3.16659 4.58337 3.16659ZM0.333374 4.58325C0.333374 3.45608 0.781141 2.37508 1.57817 1.57805C2.3752 0.781019 3.4562 0.333252 4.58337 0.333252H24.4167C25.5439 0.333252 26.6249 0.781019 27.4219 1.57805C28.2189 2.37508 28.6667 3.45608 28.6667 4.58325V24.4166C28.6667 25.5438 28.2189 26.6248 27.4219 27.4218C26.6249 28.2188 25.5439 28.6666 24.4167 28.6666H4.58337C3.4562 28.6666 2.3752 28.2188 1.57817 27.4218C0.781141 26.6248 0.333374 25.5438 0.333374 24.4166V4.58325ZM14.5 14.4999C10.5886 14.4999 7.41671 10.6948 7.41671 5.99992H10.25C10.25 9.63509 12.6159 11.6666 14.5 11.6666C16.3842 11.6666 18.75 9.63509 18.75 5.99992H21.5834C21.5834 10.6948 18.4115 14.4999 14.5 14.4999Z" fill="white"/>
</svg>
