<svg width="25" height="18" viewBox="0 0 25 18" fill="none" xmlns="http://www.w3.org/2000/svg">
<path d="M22.7857 0H2.21429C1.75963 0 1.32359 0.180612 1.0021 0.502103C0.680612 0.823593 0.5 1.25963 0.5 1.71429V15.4286C0.5 15.8832 0.680612 16.3193 1.0021 16.6408C1.32359 16.9622 1.75963 17.1429 2.21429 17.1429H22.7857C23.2404 17.1429 23.6764 16.9622 23.9979 16.6408C24.3194 16.3193 24.5 15.8832 24.5 15.4286V1.71429C24.5 1.25963 24.3194 0.823593 23.9979 0.502103C23.6764 0.180612 23.2404 0 22.7857 0ZM20.9 1.71429L12.5 7.52571L4.1 1.71429H20.9ZM2.21429 15.4286V2.49429L12.0114 9.27429C12.1549 9.37382 12.3254 9.42716 12.5 9.42716C12.6746 9.42716 12.8451 9.37382 12.9886 9.27429L22.7857 2.49429V15.4286H2.21429Z" fill="#3E3092"/>
</svg>
