<svg width="14" height="25" viewBox="0 0 14 25" fill="none" xmlns="http://www.w3.org/2000/svg">
<path d="M4.23484 24.4256C4.23484 20.7744 4.23484 17.1558 4.23484 13.5075C3.00184 13.5075 1.78774 13.5075 0.550537 13.5075C0.550537 11.8685 0.550537 10.259 0.550537 8.61733C1.76584 8.61733 2.98024 8.61733 4.23334 8.61733C4.23334 8.48182 4.23184 8.37843 4.23364 8.27503C4.25074 7.1857 4.23154 6.09431 4.29364 5.00733C4.43104 2.59713 6.16444 0.694181 8.56624 0.240832C9.72874 0.021375 10.8957 0.113282 12.0621 0.155111C12.5148 0.171313 12.9663 0.222863 13.4346 0.25939C13.4346 1.55875 13.4346 2.83779 13.4346 4.14982C12.9705 4.14982 12.5172 4.14364 12.0645 4.1513C11.5401 4.16013 11.0112 4.14246 10.4931 4.20609C9.63873 4.31066 9.26404 4.70274 9.23314 5.55406C9.19714 6.55443 9.22474 7.55716 9.22474 8.59524C10.6611 8.59524 12.0918 8.59524 13.5786 8.59524C13.3875 10.2419 13.2012 11.847 13.0107 13.4878C11.7513 13.4878 10.4991 13.4878 9.21574 13.4878C9.21574 15.3419 9.21574 17.1591 9.21574 18.9766C9.21574 20.785 9.21574 22.5937 9.21574 24.4259C7.54924 24.4256 5.91094 24.4256 4.23484 24.4256Z" fill="#3E3092"/>
</svg>
