<svg width="229" height="29" viewBox="0 0 229 29" fill="none" xmlns="http://www.w3.org/2000/svg">
<path d="M10.4 0C13.1583 0 15.8035 1.09571 17.7539 3.04609C19.7043 4.99647 20.8 7.64175 20.8 10.4C20.8 12.976 19.856 15.344 18.304 17.168L18.736 17.6H20L28 25.6L25.6 28L17.6 20V18.736L17.168 18.304C15.344 19.856 12.976 20.8 10.4 20.8C7.64175 20.8 4.99647 19.7043 3.04609 17.7539C1.09571 15.8035 0 13.1583 0 10.4C0 7.64175 1.09571 4.99647 3.04609 3.04609C4.99647 1.09571 7.64175 0 10.4 0ZM10.4 3.2C6.4 3.2 3.2 6.4 3.2 10.4C3.2 14.4 6.4 17.6 10.4 17.6C14.4 17.6 17.6 14.4 17.6 10.4C17.6 6.4 14.4 3.2 10.4 3.2Z" fill="#3E3092"/>
<path d="M81.15 23.7275L81 23.8801L80.835 23.7275C73.71 17.151 69 12.8022 69 8.39237C69 5.3406 71.25 3.05177 74.25 3.05177C76.56 3.05177 78.81 4.57766 79.605 6.65286H82.395C83.19 4.57766 85.44 3.05177 87.75 3.05177C90.75 3.05177 93 5.3406 93 8.39237C93 12.8022 88.29 17.151 81.15 23.7275ZM87.75 0C85.14 0 82.635 1.23597 81 3.17384C79.365 1.23597 76.86 0 74.25 0C69.63 0 66 3.67738 66 8.39237C66 14.145 71.1 18.8599 78.825 25.9858L81 28L83.175 25.9858C90.9 18.8599 96 14.145 96 8.39237C96 3.67738 92.37 0 87.75 0Z" fill="#3E3092"/>
<path fill-rule="evenodd" clip-rule="evenodd" d="M138.25 2.83333H158.083C158.459 2.83333 158.819 2.98259 159.085 3.24827C159.351 3.51394 159.5 3.87428 159.5 4.25V24.0833C159.5 24.4591 159.351 24.8194 159.085 25.0851C158.819 25.3507 158.459 25.5 158.083 25.5H138.25C137.874 25.5 137.514 25.3507 137.248 25.0851C136.983 24.8194 136.833 24.4591 136.833 24.0833V4.25C136.833 3.87428 136.983 3.51394 137.248 3.24827C137.514 2.98259 137.874 2.83333 138.25 2.83333ZM134 4.25C134 3.12283 134.448 2.04183 135.245 1.2448C136.042 0.447767 137.123 0 138.25 0H158.083C159.211 0 160.292 0.447767 161.089 1.2448C161.886 2.04183 162.333 3.12283 162.333 4.25V24.0833C162.333 25.2105 161.886 26.2915 161.089 27.0885C160.292 27.8856 159.211 28.3333 158.083 28.3333H138.25C137.123 28.3333 136.042 27.8856 135.245 27.0885C134.448 26.2915 134 25.2105 134 24.0833V4.25ZM148.167 14.1667C144.255 14.1667 141.083 10.3615 141.083 5.66667H143.917C143.917 9.30183 146.283 11.3333 148.167 11.3333C150.051 11.3333 152.417 9.30183 152.417 5.66667H155.25C155.25 10.3615 152.078 14.1667 148.167 14.1667Z" fill="#3E3092"/>
<path d="M214.333 0C216.19 0 217.97 0.737498 219.283 2.05025C220.596 3.36301 221.333 5.14348 221.333 7C221.333 8.85652 220.596 10.637 219.283 11.9497C217.97 13.2625 216.19 14 214.333 14C212.477 14 210.696 13.2625 209.384 11.9497C208.071 10.637 207.333 8.85652 207.333 7C207.333 5.14348 208.071 3.36301 209.384 2.05025C210.696 0.737498 212.477 0 214.333 0ZM214.333 3.5C213.405 3.5 212.515 3.86875 211.858 4.52513C211.202 5.1815 210.833 6.07174 210.833 7C210.833 7.92826 211.202 8.8185 211.858 9.47487C212.515 10.1313 213.405 10.5 214.333 10.5C215.262 10.5 216.152 10.1313 216.808 9.47487C217.465 8.8185 217.833 7.92826 217.833 7C217.833 6.07174 217.465 5.1815 216.808 4.52513C216.152 3.86875 215.262 3.5 214.333 3.5ZM214.333 15.75C219.006 15.75 228.333 18.0775 228.333 22.75V28H200.333V22.75C200.333 18.0775 209.661 15.75 214.333 15.75ZM214.333 19.075C209.136 19.075 203.658 21.63 203.658 22.75V24.675H225.008V22.75C225.008 21.63 219.531 19.075 214.333 19.075Z" fill="#3E3092"/>
</svg>
