<svg width="27" height="27" viewBox="0 0 27 27" fill="none" xmlns="http://www.w3.org/2000/svg">
<path d="M26.5906 10.9394C26.7564 11.8407 26.8467 12.7831 26.8467 13.7666C26.8467 21.4589 21.7742 26.9286 14.1128 26.9286C12.3706 26.9291 10.6452 26.5812 9.03547 25.9048C7.42571 25.2283 5.96305 24.2366 4.73106 22.9862C3.49908 21.7358 2.52192 20.2513 1.85542 18.6175C1.18893 16.9837 0.846149 15.2326 0.84668 13.4643C0.846149 11.696 1.18893 9.94489 1.85542 8.31109C2.52192 6.67728 3.49908 5.19278 4.73106 3.9424C5.96305 2.69201 7.42571 1.70026 9.03547 1.02381C10.6452 0.347358 12.3706 -0.00053852 14.1128 6.25687e-07C17.6949 6.25687e-07 20.688 1.33768 22.9843 3.50969L19.2446 7.30524V7.29566C17.8525 5.94978 16.0858 5.25906 14.1128 5.25906C9.73571 5.25906 6.17794 9.01221 6.17794 13.4561C6.17794 17.8986 9.73571 21.6599 14.1128 21.6599C18.0843 21.6599 20.7877 19.3553 21.3429 16.1902H14.1128V10.9394H26.592H26.5906Z" fill="white"/>
</svg>
