<svg width="37" height="34" viewBox="0 0 37 34" fill="none" xmlns="http://www.w3.org/2000/svg">
<path d="M18.685 28.812L18.5 28.9973L18.2965 28.812C9.509 20.8262 3.7 15.5455 3.7 10.1907C3.7 6.48501 6.475 3.70572 10.175 3.70572C13.024 3.70572 15.799 5.55858 16.7795 8.07847H20.2205C21.201 5.55858 23.976 3.70572 26.825 3.70572C30.525 3.70572 33.3 6.48501 33.3 10.1907C33.3 15.5455 27.491 20.8262 18.685 28.812ZM26.825 0C23.606 0 20.5165 1.50082 18.5 3.85395C16.4835 1.50082 13.394 0 10.175 0C4.477 0 0 4.4654 0 10.1907C0 17.176 6.29 22.9014 15.8175 31.5542L18.5 34L21.1825 31.5542C30.71 22.9014 37 17.176 37 10.1907C37 4.4654 32.523 0 26.825 0Z" fill="white"/>
</svg>
