<svg width="21" height="21" viewBox="0 0 21 21" fill="none" xmlns="http://www.w3.org/2000/svg">
<path d="M16.5244 20.2849H4.35794C2.23259 20.2849 0.503235 18.6062 0.503235 16.543V4.73233C0.503235 2.66913 2.23259 0.990356 4.35794 0.990356H16.5244C18.6497 0.990356 20.3791 2.66913 20.3791 4.73233V16.543C20.3791 18.6062 18.6497 20.2849 16.5244 20.2849ZM4.35794 2.86119C3.29526 2.86119 2.43043 3.70043 2.43043 4.73233V16.543C2.43043 17.5746 3.29496 18.4141 4.35794 18.4141H16.5244C17.5871 18.4141 18.4519 17.5749 18.4519 16.543V4.73233C18.4519 3.70073 17.5874 2.86119 16.5244 2.86119H4.35794Z" fill="#3E3092"/>
</svg>
