<svg width="498" height="500" viewBox="0 0 498 500" fill="none" xmlns="http://www.w3.org/2000/svg">
<path d="M0.0278768 306.654L50.6076 272.446L85.8574 319.81L31.4142 327.332L46.1333 298.99L0.0278768 306.654Z" fill="#FF3416"/>
<rect x="226.697" y="146.279" width="228.576" height="228.576" transform="rotate(54.3953 226.697 146.279)" fill="#3E3092"/>
<path fill-rule="evenodd" clip-rule="evenodd" d="M118.262 254.14L135.685 246.825L137.947 252.214L120.525 259.528L118.262 254.14Z" fill="black"/>
<path fill-rule="evenodd" clip-rule="evenodd" d="M121.38 260.757L140.032 257.73L140.968 263.499L122.316 266.525L121.38 260.757Z" fill="black"/>
<path fill-rule="evenodd" clip-rule="evenodd" d="M120.415 266.968L138.812 271.28L137.478 276.97L119.081 272.658L120.415 266.968Z" fill="black"/>
<circle cx="105.905" cy="264.489" r="17.2303" transform="rotate(44.507 105.905 264.489)" fill="white"/>
<circle cx="104.597" cy="261.507" r="8.16172" transform="rotate(44.507 104.597 261.507)" fill="black"/>
<path d="M312.744 98.7738L221.919 190.416L290.977 272.206L406.816 193.577L305.56 180.878L312.744 98.7738Z" fill="#3FAC8C"/>
<path d="M187.047 433.715L180.671 436.584L185.215 465.035L177.04 468.713L181.009 477.535L189.376 470.787L189.494 488.965L194.89 486.537L194.281 468.58L205.156 473.962L204.717 466.868L195.854 462.9L187.047 433.715Z" fill="white"/>
</svg>
