<svg width="35" height="31" viewBox="0 0 35 31" fill="none" xmlns="http://www.w3.org/2000/svg">
<path d="M17.67 26.2698L17.5 26.4387L17.313 26.2698C9.238 18.9886 3.9 14.1738 3.9 9.29155C3.9 5.91281 6.45 3.37875 9.85 3.37875C12.468 3.37875 15.018 5.06812 15.919 7.36567H19.081C19.982 5.06812 22.532 3.37875 25.15 3.37875C28.55 3.37875 31.1 5.91281 31.1 9.29155C31.1 14.1738 25.762 18.9886 17.67 26.2698ZM25.15 0C22.192 0 19.353 1.36839 17.5 3.5139C15.647 1.36839 12.808 0 9.85 0C4.614 0 0.5 4.07139 0.5 9.29155C0.5 15.6605 6.28 20.8807 15.035 28.77L17.5 31L19.965 28.77C28.72 20.8807 34.5 15.6605 34.5 9.29155C34.5 4.07139 30.386 0 25.15 0Z" fill="#3E51C1"/>
</svg>
