<svg width="50" height="46" viewBox="0 0 50 46" fill="none" xmlns="http://www.w3.org/2000/svg">
<path d="M9.09091 18.4V46H0V18.4H9.09091ZM18.1818 46C16.9763 46 15.8201 45.5154 14.9677 44.6527C14.1153 43.79 13.6364 42.62 13.6364 41.4V18.4C13.6364 17.135 14.1364 15.985 14.9773 15.157L29.9318 0L32.3409 2.438C32.9545 3.059 33.3409 3.91 33.3409 4.853L33.2727 5.589L31.1136 16.1H45.4545C47.9773 16.1 50 18.17 50 20.7V25.3C50 25.898 49.8864 26.45 49.6818 26.979L42.8182 43.194C42.1364 44.85 40.5227 46 38.6364 46H18.1818ZM18.1818 41.4H38.7045L45.4545 25.3V20.7H25.4773L28.0455 8.464L18.1818 18.469V41.4Z" fill="white"/>
</svg>
