<svg width="167" height="162" viewBox="0 0 167 162" fill="none" xmlns="http://www.w3.org/2000/svg">
<g id="&#208;&#187;&#208;&#190;&#208;&#179;&#208;&#190; &#208;&#189;&#208;&#190;&#208;&#178;&#208;&#190;&#208;&#181; rgb-06 1" clip-path="url(#clip0_3079_799)">
<path id="Vector" d="M61.9102 110.232C62.5315 110.255 63.1504 110.323 63.7624 110.433C63.9514 110.465 64.1446 110.468 64.336 110.495C64.4005 110.492 64.4647 110.507 64.5203 110.54C64.576 110.573 64.6207 110.621 64.6485 110.679C63.9967 111.782 63.2451 112.817 62.5246 113.872C62.1039 114.489 61.7076 115.12 61.3037 115.748C61.2437 115.836 61.1968 115.936 61.1304 116.017C60.7671 116.409 60.541 116.908 60.4858 117.44C60.4171 117.976 60.3167 118.508 60.1851 119.033C60.1531 119.222 60.0808 119.401 59.9729 119.56C59.7878 119.814 59.5492 119.827 59.4745 119.504C59.4212 119.27 59.2329 119.169 59.149 118.98C59.1223 118.882 59.1896 118.786 59.1502 118.689C59.1145 118.591 59.1844 118.495 59.145 118.399C59.0357 118.21 59.2154 117.893 58.9996 117.811C58.735 117.706 58.6151 118.022 58.4631 118.185C58.0302 118.634 57.5724 119.055 57.1186 119.48C57.0473 119.561 56.9492 119.612 56.8424 119.626C56.7356 119.639 56.6276 119.613 56.5384 119.553C56.1389 119.347 55.7283 119.158 55.3369 118.968C55.3326 118.909 55.3435 118.85 55.3686 118.797C55.3936 118.743 55.432 118.697 55.48 118.663C56.2135 118.002 56.8829 117.27 57.7148 116.721C57.7521 116.7 57.7857 116.674 57.8144 116.642C57.8408 116.586 57.9002 116.526 57.8913 116.478C57.8794 116.45 57.8611 116.426 57.8378 116.407C57.8145 116.388 57.7869 116.374 57.7575 116.368C57.2953 116.26 56.8255 116.187 56.3523 116.151C55.5343 116.11 54.72 116.061 53.9092 116.005C53.4903 115.974 53.4403 115.867 53.6358 115.476C53.6595 115.417 53.6986 115.364 53.7491 115.325C53.7996 115.285 53.8598 115.26 53.9234 115.251C54.0527 115.236 54.1792 115.214 54.3083 115.193C55.3539 115.032 56.3808 114.79 57.4101 114.543C57.7851 114.455 58.1428 114.305 58.4685 114.1C58.6089 114.001 58.7657 113.927 58.9317 113.882C59.0665 113.853 59.194 113.796 59.3067 113.717C59.4194 113.638 59.515 113.537 59.5879 113.42C60.3599 112.342 61.1441 111.291 61.9102 110.232Z" fill="#2D227C"/>
<path id="Vector_2" d="M69.3925 111.175C69.4053 111.157 69.4147 111.137 69.4201 111.115C69.552 110.532 69.552 110.532 70.1141 110.639C70.4756 110.705 70.8357 110.768 71.1997 110.835C71.486 110.894 71.4965 110.905 71.5176 111.222C71.5224 111.305 71.4942 111.392 71.5522 111.47C71.3844 112.183 71.3888 112.917 71.2796 113.639C71.1939 114.191 71.1721 114.753 71.0761 115.3C70.9395 116.087 71.0025 116.877 70.9651 117.668C70.9447 118.14 70.9306 118.612 70.9268 119.089C70.9165 119.218 70.9323 119.347 70.9733 119.469C71.0144 119.591 71.0798 119.703 71.1657 119.799C71.3516 120.005 71.5141 120.235 71.6839 120.455C71.7356 120.499 71.7741 120.556 71.7951 120.62C71.8218 120.717 71.9647 120.734 71.9627 120.852L73.1526 122.621C73.2095 122.707 73.3017 122.778 73.2778 122.93C72.9336 123.021 72.5806 123.076 72.2246 123.094C72.1599 123.096 72.0955 123.082 72.0378 123.052C71.9802 123.023 71.9313 122.978 71.896 122.924C71.5312 122.496 71.1678 122.073 70.7981 121.649C70.6289 121.454 70.4536 121.265 70.2782 121.077C70.2624 121.062 70.2431 121.052 70.2222 121.048C70.2013 121.044 70.1796 121.045 70.1594 121.052C70.1392 121.059 70.1212 121.071 70.1074 121.087C70.0935 121.103 70.0842 121.123 70.0805 121.144C70.0532 121.247 70.0343 121.352 70.024 121.458C69.957 122.184 69.8874 122.909 69.8292 123.636C69.8042 123.938 69.7132 124.005 69.4458 124.033C68.4747 124.129 68.6435 124.023 68.6249 123.279C68.6146 122.892 68.6195 122.506 68.6156 122.119C68.6134 121.99 68.6049 121.861 68.5977 121.735C68.4432 121.663 68.6952 121.675 68.5977 121.735C68.1178 122.136 67.2894 122.625 66.8381 123.052C66.7299 123.17 66.5867 123.25 66.4293 123.281C66.2719 123.312 66.1086 123.292 65.9632 123.224L65.7785 123.163C65.4333 123.042 65.4232 122.996 65.6389 122.743C66.3026 121.957 66.9675 121.17 67.6337 120.382C67.8489 120.146 68.0202 119.873 68.1397 119.577C68.2684 119.282 68.4215 118.997 68.5975 118.727C68.8343 118.295 68.9647 117.812 68.9781 117.319C69.0432 115.947 69.1783 114.58 69.2713 113.209C69.3492 112.533 69.3897 111.854 69.3925 111.175Z" fill="#2D227C"/>
<path id="Vector_3" d="M93.9583 73.7212L100.318 72.7041L95.6712 76.3236L100.164 80.188L93.7626 79.7738L93.9583 73.7212Z" fill="#F60007"/>
<path id="Vector_4" d="M55.1211 68.4518L33.6522 58.2174L43.4314 76.5496L25.6642 80.72L26.4111 82.7977L51.5359 91.2331L55.1211 68.4518Z" fill="#2D227C"/>
<path id="Vector_5" d="M94.9624 72.5893L53.56 68.6559L50.3468 103.186L33.7802 104.908L34.354 106.31L37.4561 106.577L34.3672 107.615L35.4705 109.951L38.7622 108.654L35.9392 110.94L36.5367 112.419L39.1893 112.178L37.428 114.383L38.1927 115.699L49.9007 107.951L49.7143 109.97L91.1153 113.9L94.9624 72.5893ZM79.8169 84.029C79.2741 83.6986 78.8413 83.2153 78.5732 82.6401C78.305 82.0649 78.2137 81.4236 78.3107 80.7974C78.4076 80.1712 78.6886 79.5882 79.1179 79.1221C79.5473 78.656 80.1058 78.3278 80.7227 78.179C81.3397 78.0302 81.9875 78.0674 82.5841 78.286C83.1807 78.5047 83.6994 78.8948 84.0745 79.4072C84.4496 79.9195 84.6643 80.531 84.6914 81.1644C84.7186 81.7977 84.5569 82.4244 84.227 82.9653C84.0082 83.3245 83.7206 83.637 83.3805 83.8849C83.0404 84.1328 82.6545 84.3113 82.2449 84.4101C81.8353 84.5088 81.4101 84.526 80.9934 84.4606C80.5768 84.3953 80.177 84.2486 79.8169 84.029Z" fill="#F7CB25"/>
<path id="Vector_6" d="M82.3011 77.4958C82.1265 77.4791 81.9652 77.3948 81.8518 77.2609C81.7385 77.1271 81.6821 76.9543 81.6948 76.7798L81.8634 74.7179C81.8791 74.5433 81.963 74.3821 82.097 74.2691C82.231 74.1562 82.4044 74.1006 82.5795 74.1143C82.7544 74.1303 82.9161 74.2145 83.0296 74.3485C83.1431 74.4825 83.1992 74.6556 83.1858 74.8304L83.0171 76.8923C83.0022 77.0671 82.9185 77.2288 82.7843 77.3419C82.6501 77.455 82.4764 77.5103 82.3011 77.4958Z" fill="#12100E"/>
<path id="Vector_7" d="M80.4892 77.7084C80.323 77.7681 80.1396 77.7595 79.9793 77.6844C79.8191 77.6093 79.6951 77.4739 79.6346 77.3079L78.9155 75.3653C78.8553 75.1992 78.8635 75.0162 78.9383 74.8564C79.0132 74.6967 79.1485 74.5732 79.3147 74.5132C79.481 74.4535 79.6644 74.4621 79.8246 74.5372C79.9848 74.6123 80.1088 74.7476 80.1694 74.9136L80.8885 76.8563C80.9487 77.0224 80.9405 77.2054 80.8656 77.3651C80.7908 77.5249 80.6554 77.6483 80.4892 77.7084Z" fill="#12100E"/>
<path id="Vector_8" d="M78.63 78.7839C78.562 78.839 78.4837 78.8801 78.3996 78.9048C78.3155 78.9295 78.2274 78.9374 78.1402 78.9279C78.053 78.9185 77.9685 78.8919 77.8915 78.8498C77.8146 78.8076 77.7467 78.7507 77.6918 78.6823L76.3917 77.0684C76.3363 77.0004 76.295 76.9222 76.27 76.8382C76.245 76.7543 76.237 76.6662 76.2462 76.5792C76.2555 76.4922 76.2819 76.4079 76.3239 76.3312C76.366 76.2545 76.4229 76.1869 76.4913 76.1323C76.6289 76.0217 76.805 75.9703 76.9809 75.9894C77.1568 76.0084 77.3182 76.0963 77.4295 76.2338L78.7296 77.8477C78.7849 77.9157 78.8263 77.994 78.8512 78.0779C78.8762 78.1619 78.8843 78.2499 78.875 78.3369C78.8658 78.4239 78.8394 78.5082 78.7973 78.5849C78.7553 78.6616 78.6984 78.7293 78.63 78.7839Z" fill="#12100E"/>
<path id="Vector_9" d="M101.499 76.9788L103.512 74.3101L109.48 78.0485L107.041 80.8494L101.499 76.9788Z" fill="#730078"/>
<path id="Vector_10" d="M117.946 54.6563L125.808 48.0889L133.022 57.6572L125.029 63.4995L117.946 54.6563Z" fill="#F60007"/>
<path id="Vector_11" d="M111.268 65.5871L116.926 64.8699L116.936 72.124L111.294 71.7561L111.268 65.5871Z" fill="#22922F"/>
<path id="Vector_12" d="M117.864 92.5971L123.464 87.2582L117.505 79.4267L109.982 84.6004L117.864 92.5971Z" fill="#409D78"/>
<path id="Vector_13" d="M138.98 75.7492L126.308 75.8483L126.437 88.4958L139.108 88.3967L138.98 75.7492Z" fill="#F7CB25"/>
<path id="Vector_14" d="M144.425 48.5947L130.162 69.7539L144.384 71.8976L144.425 48.5947Z" fill="#2D227C"/>
<path id="Vector_15" d="M84.4289 82.775C84.137 83.3563 83.6787 83.8377 83.1121 84.1583C82.5455 84.4789 81.8959 84.6244 81.2456 84.5763C80.5952 84.5282 79.9734 84.2887 79.4586 83.8881C78.9439 83.4875 78.5594 82.9438 78.3538 82.3257C78.1483 81.7077 78.1308 81.0431 78.3037 80.4161C78.4766 79.789 78.8321 79.2276 79.3252 78.803C79.8183 78.3783 80.4268 78.1095 81.0738 78.0304C81.7208 77.9514 82.3771 78.0657 82.9599 78.3589C83.7407 78.7518 84.334 79.4376 84.6094 80.2656C84.8849 81.0937 84.8199 81.9963 84.4289 82.775Z" fill="white"/>
<path id="Vector_16" d="M79.9362 84.3698C79.3257 84.0631 78.8197 83.5828 78.4822 82.9897C78.1446 82.3966 77.9906 81.7172 78.0396 81.0376C78.0886 80.358 78.3385 79.7087 78.7576 79.1716C79.1768 78.6346 79.7463 78.2341 80.3943 78.0207C81.0422 77.8073 81.7395 77.7906 82.3978 77.9727C83.0562 78.1549 83.6461 78.5277 84.093 79.0439C84.5399 79.5602 84.8236 80.1968 84.9083 80.8732C84.9931 81.5496 84.875 82.2355 84.5691 82.844C84.1588 83.66 83.4403 84.2791 82.5714 84.5653C81.7026 84.8514 80.7547 84.7811 79.9362 84.3698ZM82.8884 78.4977C82.3357 78.2224 81.714 78.1163 81.1018 78.193C80.4896 78.2697 79.9142 78.5256 79.4483 78.9285C78.9823 79.3314 78.6466 79.8633 78.4835 80.457C78.3204 81.0508 78.3373 81.6798 78.5318 82.2649C78.7264 82.8499 79.0901 83.3648 79.577 83.7445C80.0638 84.1242 80.6521 84.3518 81.2676 84.3986C81.8832 84.4454 82.4984 84.3093 83.0357 84.0074C83.573 83.7056 84.0084 83.2515 84.2869 82.7024C84.473 82.3356 84.5844 81.9355 84.6148 81.5252C84.6452 81.1148 84.5939 80.7023 84.4639 80.3115C84.3339 79.9207 84.1278 79.5592 83.8574 79.2479C83.587 78.9366 83.2577 78.6816 82.8884 78.4977Z" fill="#160D00"/>
<path id="Vector_17" d="M82.4225 81.8635C82.3109 82.0469 82.1472 82.1931 81.9521 82.2835C81.757 82.374 81.5393 82.4045 81.3265 82.3714C81.1137 82.3382 80.9154 82.2428 80.7567 82.0973C80.598 81.9517 80.486 81.7626 80.4349 81.5537C80.3838 81.3449 80.3958 81.1257 80.4695 80.924C80.5433 80.7223 80.6753 80.5471 80.849 80.4205C81.0227 80.2939 81.2302 80.2217 81.4453 80.213C81.6604 80.2043 81.8734 80.2594 82.0573 80.3715C82.1796 80.4455 82.2861 80.5429 82.3707 80.6581C82.4553 80.7732 82.5163 80.9039 82.5502 81.0425C82.5842 81.1811 82.5903 81.325 82.5684 81.4659C82.5465 81.6067 82.4969 81.7419 82.4225 81.8635Z" fill="#150D04"/>
</g>
<defs>
<clipPath id="clip0_3079_799">
<rect width="129.332" height="116.707" fill="white" transform="translate(49.886 0.548828) rotate(25.1051)"/>
</clipPath>
</defs>
</svg>
