<svg width="104" height="97" viewBox="0 0 104 97" fill="none" xmlns="http://www.w3.org/2000/svg">
<path d="M46.1776 78.9169C46.638 78.7219 47.1116 78.5597 47.595 78.4314C47.7436 78.3904 47.8853 78.3266 48.0339 78.281C48.0795 78.2562 48.1315 78.2455 48.1832 78.2504C48.235 78.2553 48.2841 78.2755 48.3242 78.3084C48.2259 79.334 48.0316 80.3437 47.867 81.3579C47.771 81.9505 47.6978 82.5454 47.6178 83.1402C47.6041 83.2246 47.6041 83.3135 47.5835 83.3955C47.4527 83.8049 47.4584 84.2454 47.5995 84.6514C47.7326 85.0655 47.841 85.4871 47.9242 85.914C47.9653 86.0624 47.9739 86.2179 47.9493 86.3699C47.9013 86.6183 47.7321 86.7095 47.5675 86.4998C47.4487 86.3471 47.2772 86.3379 47.1515 86.2285C47.0989 86.167 47.1149 86.0736 47.0532 86.0166C46.9937 85.9573 47.012 85.8639 46.9503 85.8069C46.8063 85.7066 46.8292 85.4149 46.644 85.4286C46.4154 85.4422 46.436 85.7135 46.3811 85.8844C46.2188 86.3585 46.029 86.8211 45.8439 87.2861C45.8194 87.3689 45.7656 87.44 45.6924 87.4861C45.6192 87.5323 45.5316 87.5503 45.4461 87.5368C45.0849 87.5231 44.7215 87.5254 44.3717 87.5209C44.3485 87.4794 44.3363 87.4327 44.3363 87.3852C44.3363 87.3378 44.3485 87.2911 44.3717 87.2496C44.6803 86.518 44.918 85.7568 45.3364 85.073C45.3566 85.0453 45.372 85.0145 45.3821 84.9818C45.3821 84.9317 45.405 84.8679 45.3821 84.836C45.364 84.8199 45.3423 84.8084 45.3189 84.8024C45.2954 84.7965 45.2708 84.7963 45.2472 84.8018C44.8737 84.8807 44.5069 84.9881 44.1499 85.1231C43.5403 85.3723 42.9307 85.6147 42.3211 85.8502C42.0057 85.971 41.9325 85.9095 41.9417 85.5585C41.9385 85.507 41.9492 85.4556 41.9725 85.4096C41.9958 85.3635 42.0309 85.3245 42.0742 85.2964C42.1634 85.2417 42.248 85.1824 42.3348 85.1231C43.0412 84.6491 43.7065 84.1226 44.3717 83.5915C44.6147 83.3993 44.824 83.1683 44.9912 82.9078C45.0597 82.7877 45.1487 82.6805 45.2541 82.591C45.3422 82.5235 45.4159 82.4391 45.4708 82.3428C45.5258 82.2465 45.5609 82.1403 45.5741 82.0303C45.7684 80.9819 45.981 79.9494 46.1776 78.9169Z" fill="#2D227C"/>
<path d="M51.9475 77.0502C51.9508 77.0329 51.9508 77.0151 51.9475 76.9978C51.8447 76.5283 51.8447 76.5283 52.2904 76.4143C52.5762 76.3391 52.8597 76.2616 53.1477 76.1864C53.3763 76.1317 53.3877 76.1363 53.5112 76.3597C53.5432 76.4189 53.5523 76.4918 53.6209 76.5283C53.7421 77.1049 53.9958 77.6383 54.1627 78.2012C54.2884 78.632 54.4644 79.0491 54.581 79.4799C54.7502 80.0998 55.0657 80.6536 55.308 81.2417C55.4543 81.5927 55.6052 81.9414 55.7652 82.2901C55.8014 82.387 55.8569 82.4755 55.9284 82.5503C55.9999 82.6251 56.0859 82.6847 56.1812 82.7254C56.387 82.812 56.5836 82.9237 56.7825 83.0263C56.8349 83.0404 56.8824 83.0688 56.9196 83.1083C56.9722 83.1699 57.0819 83.1334 57.1208 83.22L58.5907 84.1021C58.6616 84.1454 58.753 84.1659 58.7873 84.2844C58.568 84.4687 58.3297 84.6291 58.0763 84.763C58.0301 84.7871 57.9784 84.7987 57.9262 84.7967C57.8741 84.7947 57.8234 84.7792 57.7792 84.7516C57.3677 84.5647 56.9585 84.3801 56.5447 84.1978C56.355 84.1135 56.1629 84.036 55.9709 83.9585C55.9545 83.9534 55.9371 83.9528 55.9203 83.9568C55.9036 83.9607 55.8883 83.9691 55.8759 83.9809C55.8635 83.9928 55.8546 84.0078 55.85 84.0243C55.8454 84.0407 55.8453 84.0582 55.8498 84.0747C55.8651 84.1592 55.8873 84.2422 55.9161 84.3231C56.1149 84.8747 56.3115 85.4263 56.5173 85.9755C56.6019 86.2035 56.5584 86.2832 56.3733 86.3949C55.6989 86.7961 55.7858 86.6616 55.5183 86.126C55.3788 85.8479 55.2508 85.5653 55.116 85.285C55.0702 85.1915 55.0199 85.1003 54.9719 85.0114C54.8348 85.0114 55.0222 84.934 54.9719 85.0114C54.7593 85.4673 54.3227 86.1055 54.1398 86.5704C54.1013 86.6933 54.0244 86.8007 53.9204 86.877C53.8164 86.9532 53.6906 86.9944 53.5615 86.9943L53.406 87.0126C53.1134 87.0422 53.0905 87.0126 53.1614 86.755C53.3763 85.9558 53.5919 85.1558 53.8083 84.355C53.8844 84.1096 53.9161 83.8526 53.9021 83.5961C53.8949 83.337 53.9095 83.0778 53.9455 82.8212C53.9703 82.4253 53.9006 82.0293 53.7421 81.6656C53.3214 80.6445 52.9534 79.6029 52.5533 78.5727C52.3797 78.0545 52.1774 77.5462 51.9475 77.0502Z" fill="#2D227C"/>
<path d="M57.0566 41.3969L61.3406 38.4864L59.1918 42.7074L63.7821 43.9884L58.9792 45.871L57.0566 41.3969Z" fill="#F60007"/>
<path d="M26.9795 50.8099L7.85474 50.6823L21.2302 60.6948L9.71555 69.7933L10.9683 71.0514L32.1414 68.6218L26.9795 50.8099Z" fill="#2D227C"/>
<path d="M57.4019 40.23L25.912 51.4915L35.3532 77.7318L23.8774 84.6377L24.7736 85.4628L27.1236 84.5989L25.2285 86.4086L26.8287 87.7328L28.7832 85.6656L27.5076 88.2935L28.4472 89.1664L30.2966 88.0861L29.7662 90.2924L30.7721 90.9898L36.654 81.3534L37.2072 82.8873L68.6948 71.6235L57.4019 40.23ZM50.2764 53.7273C49.7684 53.672 49.2883 53.4677 48.8969 53.1403C48.5054 52.8129 48.2201 52.3771 48.077 51.8881C47.934 51.399 47.9397 50.8786 48.0933 50.3928C48.2469 49.9069 48.5416 49.4774 48.9401 49.1585C49.3386 48.8396 49.823 48.6458 50.332 48.6014C50.841 48.557 51.3518 48.6642 51.7998 48.9093C52.2477 49.1544 52.6127 49.5264 52.8485 49.9783C53.0844 50.4302 53.1805 50.9418 53.1247 51.4481C53.088 51.7844 52.9852 52.11 52.8221 52.4066C52.6591 52.7032 52.439 52.9647 52.1744 53.1764C51.9099 53.3881 51.6061 53.5457 51.2804 53.6403C50.9547 53.7348 50.6135 53.7644 50.2764 53.7273Z" fill="#FBBC00"/>
<path d="M49.8558 48.1228C49.7229 48.1702 49.5767 48.1638 49.4485 48.105C49.3203 48.0462 49.2203 47.9397 49.17 47.8083L48.5893 46.2493C48.5411 46.1169 48.5472 45.9708 48.6063 45.8429C48.6653 45.7149 48.7726 45.6152 48.9048 45.5655C49.0376 45.5175 49.1841 45.5236 49.3124 45.5825C49.4408 45.6413 49.5407 45.7483 49.5906 45.8801L50.1712 47.439C50.22 47.5714 50.2142 47.7177 50.1551 47.8459C50.096 47.974 49.9883 48.0736 49.8558 48.1228Z" fill="#12100E"/>
<path d="M48.6099 48.8955C48.5092 48.9957 48.3727 49.0519 48.2304 49.0519C48.0882 49.0519 47.9517 48.9957 47.851 48.8955L46.6645 47.7262C46.564 47.6258 46.5076 47.4897 46.5076 47.3479C46.5076 47.206 46.564 47.07 46.6645 46.9695C46.7652 46.8693 46.9017 46.813 47.044 46.813C47.1863 46.813 47.3228 46.8693 47.4235 46.9695L48.6099 48.1388C48.7104 48.2392 48.7669 48.3752 48.7669 48.5171C48.7669 48.659 48.7104 48.795 48.6099 48.8955Z" fill="#12100E"/>
<path d="M47.6223 50.3131C47.5916 50.3764 47.5486 50.433 47.4958 50.4797C47.443 50.5264 47.3815 50.5622 47.3148 50.5851C47.248 50.608 47.1774 50.6175 47.107 50.613C47.0366 50.6086 46.9678 50.5903 46.9045 50.5592L45.4071 49.8276C45.3436 49.797 45.2868 49.7541 45.24 49.7015C45.1932 49.6489 45.1573 49.5875 45.1343 49.521C45.1114 49.4545 45.1018 49.3841 45.1063 49.3139C45.1107 49.2437 45.1291 49.1751 45.1602 49.1119C45.2228 48.9845 45.3335 48.887 45.4681 48.8408C45.6027 48.7947 45.7501 48.8037 45.8781 48.8658L47.3754 49.5974C47.4389 49.6281 47.4957 49.6709 47.5425 49.7235C47.5894 49.7762 47.6253 49.8375 47.6482 49.904C47.6712 49.9705 47.6807 50.0409 47.6762 50.1111C47.6718 50.1813 47.6535 50.25 47.6223 50.3131Z" fill="#12100E"/>
<path d="M63.6587 41.1963L64.2142 38.5662L69.8355 39.2522L69.0148 42.124L63.6587 41.1963Z" fill="#730078"/>
<path d="M68.0205 19.3298L71.5044 11.8655L80.0221 16.3714L76.1953 23.3526L68.0205 19.3298Z" fill="#F60007"/>
<path d="M66.8865 29.5679L70.7613 27.1155L73.2439 32.3941L69.0102 34.0511L66.8865 29.5679Z" fill="#22922F"/>
<path d="M80.9044 46.9854L83.1607 41.1872L76.1495 37.5177L72.437 43.8516L80.9044 46.9854Z" fill="#409D78"/>
<path d="M90.5326 27.5128L81.3394 31.9083L85.748 41.074L94.9412 36.6786L90.5326 27.5128Z" fill="#FBBC00"/>
<path d="M85.2318 5.88257L82.0657 26.156L93.1529 22.8648L85.2318 5.88257Z" fill="#2D227C"/>
<path d="M53.2071 51.2407C53.1929 51.7635 53.0235 52.2704 52.7202 52.6972C52.417 53.124 51.9937 53.4515 51.5037 53.6384C51.0137 53.8252 50.4792 53.863 49.9677 53.7469C49.4562 53.6308 48.9907 53.3661 48.6302 52.9862C48.2696 52.6063 48.0302 52.1283 47.9422 51.6127C47.8541 51.0971 47.9214 50.5671 48.1356 50.0896C48.3498 49.6122 48.7011 49.2088 49.1453 48.9305C49.5894 48.6522 50.1064 48.5115 50.6308 48.5262C51.3334 48.5459 51.9994 48.8428 52.4824 49.3518C52.9655 49.8608 53.2262 50.5402 53.2071 51.2407Z" fill="white"/>
<path d="M50.4798 53.9347C49.9307 53.9196 49.3984 53.7425 48.9502 53.4258C48.502 53.1091 48.1581 52.667 47.9619 52.1554C47.7658 51.6438 47.7262 51.0857 47.8481 50.5516C47.9701 50.0176 48.2482 49.5316 48.6472 49.1552C49.0462 48.7787 49.5482 48.5287 50.0898 48.4367C50.6313 48.3447 51.1881 48.4149 51.6896 48.6383C52.1912 48.8618 52.615 49.2286 52.9074 49.6922C53.1999 50.1558 53.3479 50.6955 53.3328 51.243C53.3124 51.9771 53.0004 52.6731 52.4654 53.1779C51.9304 53.6827 51.2162 53.9549 50.4798 53.9347ZM50.6261 48.6516C50.1297 48.6396 49.6408 48.7745 49.2212 49.0393C48.8015 49.304 48.4699 49.6866 48.2681 50.139C48.0662 50.5913 48.0033 51.0931 48.0871 51.5811C48.1709 52.0691 48.3978 52.5215 48.7391 52.8811C49.0804 53.2407 49.5208 53.4915 50.0049 53.6019C50.489 53.7123 50.995 53.6774 51.4592 53.5014C51.9233 53.3255 52.3249 53.0165 52.6132 52.6134C52.9014 52.2102 53.0635 51.731 53.079 51.2362C53.0894 50.9056 53.034 50.5762 52.9161 50.2671C52.7983 49.9579 52.6202 49.675 52.3922 49.4348C52.1642 49.1946 51.8907 49.0017 51.5876 48.8672C51.2845 48.7328 50.9578 48.6595 50.6261 48.6516Z" fill="#160D00"/>
<path d="M51.4354 51.2612C51.4168 51.4329 51.3474 51.5952 51.2362 51.7276C51.125 51.86 50.9769 51.9565 50.8106 52.005C50.6444 52.0534 50.4674 52.0516 50.3022 51.9998C50.137 51.948 49.9909 51.8484 49.8824 51.7138C49.7739 51.5792 49.708 51.4155 49.6928 51.2435C49.6777 51.0714 49.714 50.8988 49.7973 50.7473C49.8806 50.5959 50.0071 50.4725 50.1607 50.3928C50.3144 50.3131 50.4883 50.2806 50.6605 50.2994C50.7748 50.3116 50.8856 50.3462 50.9864 50.4012C51.0873 50.4562 51.1763 50.5305 51.2483 50.6198C51.3203 50.7092 51.3739 50.8119 51.406 50.9219C51.4381 51.032 51.4481 51.1473 51.4354 51.2612Z" fill="#150D04"/>
</svg>
