<svg width="24" height="25" viewBox="0 0 24 25" fill="none" xmlns="http://www.w3.org/2000/svg">
<g id="mail-1">
<path id="Vector" d="M2.75232 5.57143L9.05123 12.2999M9.05123 12.2999L2.75232 20.4286M9.05123 12.2999L10.4838 13.8301C11.3376 14.6497 12.6626 14.6497 13.5163 13.8301L15.0222 12.2999M21.4444 5.77382L15.0222 12.2999M15.0222 12.2999L21.4444 20.2262M2.75232 20.4286C3.14406 20.7842 3.65864 21 4.22222 21H19.7778C20.4414 21 21.0372 20.7007 21.4444 20.2262M2.75232 20.4286C2.29098 20.0097 2 19.3969 2 18.7143V7.28571C2 6.02335 2.99492 5 4.22222 5H19.7778C21.0051 5 22 6.02335 22 7.28571V18.7143C22 19.2939 21.7902 19.8232 21.4444 20.2262" stroke="#3E3092" stroke-width="2" stroke-linecap="round"/>
</g>
</svg>
