<svg width="20" height="20" viewBox="0 0 20 20" fill="none" xmlns="http://www.w3.org/2000/svg">
<g id="Group 8">
<path id="Vector" d="M4.02222 8.79317C5.62222 11.6525 8.2 13.9966 11.3444 15.4515L13.7889 13.2287C14.1 12.9458 14.5333 12.865 14.9222 12.9761C16.1667 13.3499 17.5 13.552 18.8889 13.552C19.1836 13.552 19.4662 13.6585 19.6746 13.848C19.8829 14.0374 20 14.2944 20 14.5624V18.0987C20 18.3667 19.8829 18.6237 19.6746 18.8131C19.4662 19.0026 19.1836 19.1091 18.8889 19.1091C13.8792 19.1091 9.07478 17.2994 5.53243 14.0782C1.99007 10.857 0 6.48818 0 1.93274C0 1.66477 0.117063 1.40778 0.325437 1.21829C0.533811 1.02881 0.816426 0.922363 1.11111 0.922363H5C5.29469 0.922363 5.5773 1.02881 5.78567 1.21829C5.99405 1.40778 6.11111 1.66477 6.11111 1.93274C6.11111 3.1957 6.33333 4.40815 6.74444 5.53977C6.86667 5.8934 6.77778 6.28744 6.46667 6.57035L4.02222 8.79317Z" fill="#3E3092"/>
</g>
</svg>
