<svg width="18" height="17" viewBox="0 0 18 17" fill="none" xmlns="http://www.w3.org/2000/svg">
<path d="M3.62 7.17979C5.06 9.75321 7.38 11.8629 10.21 13.1723L12.41 11.1718C12.69 10.9172 13.08 10.8444 13.43 10.9444C14.55 11.2809 15.75 11.4628 17 11.4628C17.2652 11.4628 17.5196 11.5586 17.7071 11.7291C17.8946 11.8996 18 12.1309 18 12.3721V15.5548C18 15.7959 17.8946 16.0272 17.7071 16.1978C17.5196 16.3683 17.2652 16.4641 17 16.4641C12.4913 16.4641 8.1673 14.8354 4.97918 11.9364C1.79107 9.03729 0 5.10531 0 1.0054C0 0.764234 0.105357 0.532941 0.292893 0.362407C0.48043 0.191874 0.734784 0.0960693 1 0.0960693H4.5C4.76522 0.0960693 5.01957 0.191874 5.20711 0.362407C5.39464 0.532941 5.5 0.764234 5.5 1.0054C5.5 2.14207 5.7 3.23328 6.07 4.25173C6.18 4.57 6.1 4.92464 5.82 5.17925L3.62 7.17979Z" fill="#3E3092"/>
</svg>
