<svg width="29" height="29" viewBox="0 0 29 29" fill="none" xmlns="http://www.w3.org/2000/svg">
<path fill-rule="evenodd" clip-rule="evenodd" d="M4.58331 3.16659H24.4166C24.7924 3.16659 25.1527 3.31584 25.4184 3.58152C25.6841 3.84719 25.8333 4.20753 25.8333 4.58325V24.4166C25.8333 24.7923 25.6841 25.1526 25.4184 25.4183C25.1527 25.684 24.7924 25.8333 24.4166 25.8333H4.58331C4.20759 25.8333 3.84726 25.684 3.58158 25.4183C3.3159 25.1526 3.16665 24.7923 3.16665 24.4166V4.58325C3.16665 4.20753 3.3159 3.84719 3.58158 3.58152C3.84726 3.31584 4.20759 3.16659 4.58331 3.16659ZM0.333313 4.58325C0.333313 3.45608 0.78108 2.37508 1.57811 1.57805C2.37514 0.781019 3.45614 0.333252 4.58331 0.333252H24.4166C25.5438 0.333252 26.6248 0.781019 27.4219 1.57805C28.2189 2.37508 28.6666 3.45608 28.6666 4.58325V24.4166C28.6666 25.5438 28.2189 26.6248 27.4219 27.4218C26.6248 28.2188 25.5438 28.6666 24.4166 28.6666H4.58331C3.45614 28.6666 2.37514 28.2188 1.57811 27.4218C0.78108 26.6248 0.333313 25.5438 0.333313 24.4166V4.58325ZM14.5 14.4999C10.5886 14.4999 7.41665 10.6948 7.41665 5.99992H10.25C10.25 9.63509 12.6158 11.6666 14.5 11.6666C16.3841 11.6666 18.75 9.63509 18.75 5.99992H21.5833C21.5833 10.6948 18.4114 14.4999 14.5 14.4999Z" fill="#3E51C1"/>
</svg>
