<svg width="29" height="29" viewBox="0 0 29 29" fill="none" xmlns="http://www.w3.org/2000/svg">
<path fill-rule="evenodd" clip-rule="evenodd" d="M4.25 2.83333H24.0833C24.4591 2.83333 24.8194 2.98259 25.0851 3.24827C25.3507 3.51394 25.5 3.87428 25.5 4.25V24.0833C25.5 24.4591 25.3507 24.8194 25.0851 25.0851C24.8194 25.3507 24.4591 25.5 24.0833 25.5H4.25C3.87428 25.5 3.51394 25.3507 3.24827 25.0851C2.98259 24.8194 2.83333 24.4591 2.83333 24.0833V4.25C2.83333 3.87428 2.98259 3.51394 3.24827 3.24827C3.51394 2.98259 3.87428 2.83333 4.25 2.83333V2.83333ZM0 4.25C0 3.12283 0.447767 2.04183 1.2448 1.2448C2.04183 0.447767 3.12283 0 4.25 0H24.0833C25.2105 0 26.2915 0.447767 27.0885 1.2448C27.8856 2.04183 28.3333 3.12283 28.3333 4.25V24.0833C28.3333 25.2105 27.8856 26.2915 27.0885 27.0885C26.2915 27.8856 25.2105 28.3333 24.0833 28.3333H4.25C3.12283 28.3333 2.04183 27.8856 1.2448 27.0885C0.447767 26.2915 0 25.2105 0 24.0833V4.25ZM14.1667 14.1667C10.2553 14.1667 7.08333 10.3615 7.08333 5.66667H9.91667C9.91667 9.30183 12.2825 11.3333 14.1667 11.3333C16.0508 11.3333 18.4167 9.30183 18.4167 5.66667H21.25C21.25 10.3615 18.0781 14.1667 14.1667 14.1667Z" fill="#3E3092"/>
</svg>
