<svg width="29" height="21" viewBox="0 0 29 21" fill="none" xmlns="http://www.w3.org/2000/svg">
<path id="Vector" d="M25.375 15.75C25.375 15.9489 25.2986 16.1397 25.1627 16.2803C25.0267 16.421 24.8423 16.5 24.65 16.5C24.4577 16.5 24.2733 16.421 24.1373 16.2803C24.0014 16.1397 23.925 15.9489 23.925 15.75V5.25C23.925 2.355 20.9235 0 18.125 0H5.8C4.26174 0 2.78649 0.632141 1.69878 1.75736C0.61107 2.88258 0 4.4087 0 6V21H5.8V15H13.05V21H18.85V14.25C18.85 14.0511 18.9264 13.8603 19.0623 13.7197C19.1983 13.579 19.3827 13.5 19.575 13.5C19.7673 13.5 19.9517 13.579 20.0877 13.7197C20.2236 13.8603 20.3 14.0511 20.3 14.25V16.5C20.3 17.6935 20.7583 18.8381 21.5741 19.682C22.3899 20.5259 23.4963 21 24.65 21C25.8037 21 26.9101 20.5259 27.7259 19.682C28.5417 18.8381 29 17.6935 29 16.5V13.5H25.375V15.75Z" fill="white"/>
</svg>
