<svg width="29" height="29" viewBox="0 0 29 29" fill="none" xmlns="http://www.w3.org/2000/svg">
<path fill-rule="evenodd" clip-rule="evenodd" d="M4.58331 3.16671H24.4166C24.7924 3.16671 25.1527 3.31596 25.4184 3.58164C25.6841 3.84732 25.8333 4.20765 25.8333 4.58337V24.4167C25.8333 24.7924 25.6841 25.1528 25.4184 25.4184C25.1527 25.6841 24.7924 25.8334 24.4166 25.8334H4.58331C4.20759 25.8334 3.84726 25.6841 3.58158 25.4184C3.3159 25.1528 3.16665 24.7924 3.16665 24.4167V4.58337C3.16665 4.20765 3.3159 3.84732 3.58158 3.58164C3.84726 3.31596 4.20759 3.16671 4.58331 3.16671ZM0.333313 4.58337C0.333313 3.4562 0.78108 2.3752 1.57811 1.57817C2.37514 0.781141 3.45614 0.333374 4.58331 0.333374H24.4166C25.5438 0.333374 26.6248 0.781141 27.4219 1.57817C28.2189 2.3752 28.6666 3.4562 28.6666 4.58337V24.4167C28.6666 25.5439 28.2189 26.6249 27.4219 27.4219C26.6248 28.2189 25.5438 28.6667 24.4166 28.6667H4.58331C3.45614 28.6667 2.37514 28.2189 1.57811 27.4219C0.78108 26.6249 0.333313 25.5439 0.333313 24.4167V4.58337ZM14.5 14.5C10.5886 14.5 7.41665 10.6949 7.41665 6.00004H10.25C10.25 9.63521 12.6158 11.6667 14.5 11.6667C16.3841 11.6667 18.75 9.63521 18.75 6.00004H21.5833C21.5833 10.6949 18.4114 14.5 14.5 14.5Z" fill="white"/>
</svg>
