<svg width="34" height="34" viewBox="0 0 34 34" fill="none" xmlns="http://www.w3.org/2000/svg">
<path fill-rule="evenodd" clip-rule="evenodd" d="M5.1 3.4H28.9C29.3509 3.4 29.7833 3.57911 30.1021 3.89792C30.4209 4.21673 30.6 4.64913 30.6 5.1V28.9C30.6 29.3509 30.4209 29.7833 30.1021 30.1021C29.7833 30.4209 29.3509 30.6 28.9 30.6H5.1C4.64913 30.6 4.21673 30.4209 3.89792 30.1021C3.57911 29.7833 3.4 29.3509 3.4 28.9V5.1C3.4 4.64913 3.57911 4.21673 3.89792 3.89792C4.21673 3.57911 4.64913 3.4 5.1 3.4ZM0 5.1C0 3.7474 0.53732 2.45019 1.49376 1.49376C2.45019 0.53732 3.7474 0 5.1 0H28.9C30.2526 0 31.5498 0.53732 32.5062 1.49376C33.4627 2.45019 34 3.7474 34 5.1V28.9C34 30.2526 33.4627 31.5498 32.5062 32.5062C31.5498 33.4627 30.2526 34 28.9 34H5.1C3.7474 34 2.45019 33.4627 1.49376 32.5062C0.53732 31.5498 0 30.2526 0 28.9V5.1ZM17 17C12.3063 17 8.5 12.4338 8.5 6.8H11.9C11.9 11.1622 14.739 13.6 17 13.6C19.261 13.6 22.1 11.1622 22.1 6.8H25.5C25.5 12.4338 21.6937 17 17 17Z" fill="white"/>
</svg>
