<svg width="23" height="21" viewBox="0 0 23 21" fill="none" xmlns="http://www.w3.org/2000/svg">
<path d="M12.3181 17.5312C11.5393 18.2437 10.7867 18.9552 10.0048 19.6324C9.78975 19.8187 9.49868 19.9681 9.22114 20.0197C8.59775 20.1358 8.15345 19.9042 7.86576 19.3088C7.64268 18.8465 7.48329 18.3499 7.32945 17.8579C6.91191 16.5251 6.50883 15.1875 6.10883 13.8494C6.04852 13.6481 5.95314 13.5384 5.74483 13.4702C4.48975 13.0601 3.24052 12.6323 1.98945 12.2095C1.5516 12.0616 1.1676 11.8291 0.872832 11.4653C0.35437 10.8254 0.402678 9.97923 1.01991 9.43477C1.24668 9.23465 1.52114 9.06943 1.80022 8.95115C7.85837 6.3839 13.9202 3.8253 19.9818 1.26639C20.4005 1.08974 20.8258 0.922051 21.2941 1.00049C22.1821 1.14934 22.7568 1.89021 22.6258 2.78395C22.4968 3.66348 22.3138 4.53498 22.1451 5.40833C21.6494 7.97465 21.1501 10.5404 20.6501 13.1058C20.2371 15.2258 19.8251 17.3462 19.4048 19.4647C19.2574 20.2072 18.5122 20.8418 17.7504 20.9076C17.1202 20.9619 16.5658 20.8177 16.0547 20.4104C14.8762 19.4709 13.6719 18.5642 12.4778 17.6445C12.435 17.6115 12.3898 17.5822 12.3181 17.5312ZM2.4436 10.5382C2.58299 10.5882 2.65745 10.6163 2.73283 10.642C4.20637 11.1395 5.68114 11.6327 7.1516 12.1388C7.34022 12.2037 7.47714 12.1929 7.64883 12.0857C10.9488 10.0262 14.2528 7.97311 17.5578 5.9219C17.6938 5.83759 17.8454 5.76965 17.999 5.72642C18.0691 5.70665 18.2119 5.74371 18.2319 5.7922C18.2676 5.87898 18.2676 6.01177 18.2233 6.09268C18.1599 6.20818 18.0479 6.29929 17.9488 6.39193C15.3156 8.85727 12.6802 11.3201 10.051 13.7895C9.94237 13.8914 9.84299 14.0437 9.81683 14.1869C9.67929 14.9368 9.56483 15.6912 9.44637 16.4444C9.36637 16.9534 9.29314 17.4633 9.20576 18.0457C10.2461 17.0961 11.2353 16.1928 12.2242 15.2898C12.3073 15.3506 12.3738 15.3972 12.4384 15.4469C13.9491 16.6097 15.4593 17.773 16.971 18.9342C17.0851 19.0219 17.2014 19.1136 17.3307 19.1726C17.5725 19.2825 17.7162 19.2041 17.7667 18.9462C18.2045 16.702 18.6402 14.4572 19.0765 12.2126C19.5925 9.5583 20.1091 6.90396 20.6248 4.24962C20.7193 3.76354 20.8119 3.27683 20.9168 2.73114C14.7362 5.34317 8.61591 7.92987 2.4436 10.5382Z" fill="#3E3092"/>
</svg>
