<svg width="21" height="19" viewBox="0 0 21 19" fill="none" xmlns="http://www.w3.org/2000/svg">
<path d="M11.1997 15.7076C10.4606 16.3837 9.74629 17.059 9.00427 17.7018C8.80014 17.8785 8.52389 18.0204 8.26049 18.0693C7.66886 18.1795 7.24718 17.9597 6.97414 17.3946C6.76243 16.9559 6.61116 16.4846 6.46515 16.0177C6.06888 14.7527 5.68633 13.4833 5.3067 12.2133C5.24947 12.0222 5.15894 11.9182 4.96124 11.8534C3.77009 11.4642 2.58449 11.0582 1.39713 10.657C0.981588 10.5166 0.617146 10.2959 0.337391 9.95061C-0.154664 9.34332 -0.108816 8.54024 0.476977 8.02352C0.692196 7.83359 0.952678 7.67679 1.21754 7.56454C6.96713 5.12805 12.7202 2.69976 18.473 0.271183C18.8705 0.103534 19.274 -0.0556164 19.7185 0.0188295C20.5613 0.160101 21.1068 0.863234 20.9824 1.71145C20.86 2.54618 20.6863 3.37329 20.5262 4.20216C20.0558 6.63777 19.5818 9.0728 19.1073 11.5075C18.7154 13.5196 18.3244 15.532 17.9255 17.5426C17.7856 18.2472 17.0783 18.8495 16.3553 18.912C15.7572 18.9635 15.231 18.8267 14.746 18.4401C13.6275 17.5485 12.4846 16.688 11.3512 15.8151C11.3106 15.7838 11.2677 15.7559 11.1997 15.7076ZM1.82816 9.07075C1.96044 9.11823 2.03111 9.1449 2.10265 9.16923C3.50114 9.6414 4.90079 10.1095 6.29636 10.5899C6.47537 10.6514 6.60532 10.6411 6.76827 10.5394C9.90018 8.5848 13.0359 6.63631 16.1725 4.68958C16.3016 4.60956 16.4455 4.54508 16.5913 4.50405C16.6578 4.48529 16.7933 4.52046 16.8123 4.56648C16.8462 4.64884 16.8462 4.77487 16.8041 4.85166C16.744 4.96127 16.6377 5.04774 16.5437 5.13566C14.0445 7.47543 11.5434 9.81286 9.04807 12.1564C8.94499 12.2532 8.85066 12.3977 8.82584 12.5337C8.69531 13.2453 8.58668 13.9613 8.47425 14.6762C8.39832 15.1592 8.32882 15.6431 8.24589 16.1959C9.23321 15.2946 10.1721 14.4373 11.1106 13.5803C11.1895 13.638 11.2525 13.6823 11.3139 13.7295C12.7477 14.833 14.1809 15.9371 15.6156 17.0391C15.7239 17.1223 15.8343 17.2094 15.957 17.2654C16.1865 17.3697 16.3229 17.2953 16.3708 17.0505C16.7863 14.9206 17.1998 12.7901 17.6139 10.6599C18.1036 8.14076 18.5939 5.62162 19.0834 3.10247C19.173 2.64114 19.2609 2.17923 19.3605 1.66133C13.4947 4.14032 7.68609 6.59527 1.82816 9.07075Z" fill="#3E3092"/>
</svg>
