<svg width="21" height="22" viewBox="0 0 21 22" fill="none" xmlns="http://www.w3.org/2000/svg">
<g id="icon_new - white +purple bg 1">
<path id="Vector" d="M17.4741 3.26055C17.0089 2.84064 15.0009 1.58718 10.8112 1.56903C10.8112 1.56903 5.84986 1.24518 3.44146 3.4124C2.10103 4.72726 1.64946 6.68254 1.59995 9.06863C1.55044 11.4547 1.29391 16.013 5.68704 17.2255C5.68704 17.2255 5.66976 20.6095 5.66777 20.907C5.66777 21.1149 5.70099 21.2572 5.82062 21.2866C5.90668 21.3074 6.0356 21.2632 6.14526 21.1545C6.8477 20.4537 9.0966 17.7583 9.0966 17.7583C12.1141 17.9541 14.5148 17.3622 14.773 17.2783C15.3817 17.0839 18.6743 16.8029 19.2316 12.3312C19.8074 7.72175 19.0199 4.5754 17.4741 3.26055Z" fill="#3E3092"/>
<path id="Vector_2" d="M12.9416 8.87253C12.8871 7.78117 12.3291 7.20797 11.2676 7.15295" stroke="white" stroke-width="0.853417" stroke-linecap="round" stroke-linejoin="round"/>
<path id="Vector_3" d="M14.3789 9.35125C14.4011 8.33448 14.0979 7.48498 13.4695 6.80274C12.8381 6.11808 11.9642 5.74108 10.8428 5.65955" stroke="white" stroke-width="0.853417" stroke-linecap="round" stroke-linejoin="round"/>
<path id="Vector_4" d="M15.8499 9.92301C15.8364 8.15864 15.3058 6.76907 14.258 5.75429C13.2101 4.73951 11.907 4.22673 10.3486 4.21594" stroke="white" stroke-width="0.853417" stroke-linecap="round" stroke-linejoin="round"/>
<path id="Vector_5" d="M11.3232 12.5999C11.3232 12.5999 11.717 12.633 11.929 12.3735L12.3423 11.8569C12.5417 11.6007 13.0228 11.4373 13.494 11.6981C13.8471 11.8981 14.1899 12.1156 14.5211 12.3497C14.8338 12.5782 15.4741 13.109 15.4761 13.109C15.7811 13.3648 15.8516 13.7405 15.6439 14.1366C15.6439 14.139 15.6422 14.1429 15.6422 14.1449C15.4135 14.5388 15.1231 14.8941 14.7819 15.1973C14.778 15.1993 14.778 15.2013 14.7743 15.2032C14.4779 15.4493 14.1867 15.5892 13.9007 15.6228C13.8586 15.6301 13.8158 15.6328 13.7731 15.6308C13.647 15.632 13.5216 15.6128 13.4016 15.574L13.3923 15.5604C12.9517 15.437 12.2161 15.128 10.9909 14.4565C10.282 14.0725 9.60701 13.6296 8.9733 13.1324C8.65566 12.8834 8.35267 12.6164 8.06583 12.3329L8.03526 12.3025L8.00469 12.2721L7.97412 12.2418C7.96382 12.2319 7.95385 12.2216 7.94355 12.2114C7.65815 11.9264 7.38944 11.6254 7.13876 11.3098C6.6384 10.6803 6.19255 10.0099 5.80597 9.30571C5.1301 8.08823 4.81908 7.35801 4.69481 6.91962L4.68119 6.91038C4.64223 6.79123 4.62304 6.66658 4.62437 6.5413C4.62204 6.4989 4.6246 6.45637 4.63201 6.41454C4.66767 6.13086 4.80867 5.84135 5.05501 5.546C5.057 5.54237 5.05899 5.54237 5.06099 5.53841C5.36612 5.19948 5.72372 4.91108 6.12031 4.68407C6.1223 4.68407 6.12629 4.68209 6.12861 4.68209C6.52735 4.47576 6.90549 4.54575 7.16268 4.84714C7.16467 4.84912 7.69799 5.48526 7.92693 5.7959C8.1626 6.12527 8.38152 6.46616 8.58286 6.81728C8.84537 7.28506 8.68089 7.76406 8.42303 7.96147L7.90301 8.37213C7.64051 8.58275 7.67506 8.97394 7.67506 8.97394C7.67506 8.97394 8.4453 11.8701 11.3232 12.5999Z" fill="white"/>
</g>
</svg>
