<svg width="21" height="14" viewBox="0 0 21 14" fill="none" xmlns="http://www.w3.org/2000/svg">
<path d="M8.01001 10L13.2 7L8.01001 4V10ZM19.57 2.17C19.7 2.64 19.79 3.27 19.85 4.07C19.92 4.87 19.95 5.56 19.95 6.16L20.01 7C20.01 9.19 19.85 10.8 19.57 11.83C19.32 12.73 18.74 13.31 17.84 13.56C17.37 13.69 16.51 13.78 15.19 13.84C13.89 13.91 12.7 13.94 11.6 13.94L10.01 14C5.82001 14 3.21001 13.84 2.18001 13.56C1.28001 13.31 0.70001 12.73 0.45001 11.83C0.32001 11.36 0.23001 10.73 0.17001 9.93C0.10001 9.13 0.0700097 8.44 0.0700097 7.84L0.0100098 7C0.0100098 4.81 0.17001 3.2 0.45001 2.17C0.70001 1.27 1.28001 0.69 2.18001 0.44C2.65001 0.31 3.51001 0.22 4.83001 0.16C6.13001 0.0899998 7.32001 0.0599999 8.42001 0.0599999L10.01 0C14.2 0 16.81 0.16 17.84 0.44C18.74 0.69 19.32 1.27 19.57 2.17Z" fill="#3E3092"/>
</svg>
