<svg width="44" height="32" viewBox="0 0 44 32" fill="none" xmlns="http://www.w3.org/2000/svg">
<path d="M17.7515 22.5059L29.0828 15.98L17.7515 9.45412V22.5059ZM42.9904 5.47333C43.2742 6.49572 43.4707 7.86615 43.6017 9.60639C43.7546 11.3466 43.8201 12.8476 43.8201 14.1528L43.9511 15.98C43.9511 20.7439 43.6017 24.2461 42.9904 26.4867C42.4446 28.4445 41.1783 29.7061 39.2133 30.25C38.1872 30.5328 36.3095 30.7285 33.4276 30.8591C30.5893 31.0113 27.9912 31.0766 25.5896 31.0766L22.1181 31.2071C12.9701 31.2071 7.2717 30.8591 5.02291 30.25C3.05794 29.7061 1.79163 28.4445 1.24581 26.4867C0.961978 25.4643 0.765481 24.0939 0.634484 22.3536C0.481653 20.6134 0.416154 19.1124 0.416154 17.8073L0.285156 15.98C0.285156 11.2161 0.634484 7.71388 1.24581 5.47333C1.79163 3.51556 3.05794 2.25389 5.02291 1.71006C6.04906 1.42727 7.92669 1.23149 10.8086 1.10098C13.6469 0.948706 16.245 0.883447 18.6467 0.883447L22.1181 0.75293C31.2661 0.75293 36.9645 1.10098 39.2133 1.71006C41.1783 2.25389 42.4446 3.51556 42.9904 5.47333Z" fill="white"/>
</svg>
